<?xml version="1.0" encoding="UTF-8"?>
<svg width="800" height="800" version="1.1" viewBox="0 0 800 800" xmlns="http://www.w3.org/2000/svg" xmlns:cc="http://creativecommons.org/ns#" xmlns:dc="http://purl.org/dc/elements/1.1/" xmlns:rdf="http://www.w3.org/1999/02/22-rdf-syntax-ns#">
 <metadata>
  <rdf:RDF>
   <cc:Work rdf:about="">
    <dc:format>image/svg+xml</dc:format>
    <dc:type rdf:resource="http://purl.org/dc/dcmitype/StillImage"/>
    <dc:title/>
   </cc:Work>
  </rdf:RDF>
 </metadata>
 <g transform="matrix(2.38 0 0 2.38 -70.633 4.4007)">
  <path d="m170.71 317.17c-30.736-3.1742-59.48-10.727-74.055-19.46-7.2017-4.3146-14.153-10.975-15.955-15.287-1.1452-2.7409-1.516-23.367-2.1-116.82-0.49953-79.942-0.39425-113.69 0.35615-114.15 0.58939-0.36426 2.6653 1.5687 4.6468 4.3267 6.1441 8.5521 16.139 14.573 34.256 20.635 11.866 3.9707 29.295 7.7078 43.351 9.2958 17.01 1.9216 44.284 3.2235 54 2.5778 46.742-3.1064 79.267-12.781 94.843-28.209 3.4884-3.4556 6.5259-6.2829 6.75-6.2829 0.22408 0 0.39753 50.512 0.38545 112.25-0.025 127.54 0.76276 116.3-8.7555 124.86-11.858 10.662-34.487 18.905-65.804 23.971-10.328 1.6707-18.432 2.1518-40.418 2.3992-15.125 0.17022-29.3 0.1236-31.5-0.1036zm1-246.01c-20.793-2.1035-40.245-6.4213-51.098-11.342-33.214-15.06-16.182-34.325 37.598-42.527 14.58-2.2235 48.362-3.0558 64.812-1.5967 31.276 2.7742 54.522 9.3041 64.59 18.144 15.526 13.632-4.4564 28.559-47.525 35.502-9.9675 1.6068-57.88 2.8825-68.377 1.8205z" fill="#9fa0a1"/>
  <path d="m165.21 316.29c-17.557-1.9978-32.565-5.1021-46.273-9.5717-14.483-4.7221-24.347-9.8095-31.248-16.117-9.3472-8.5428-8.6777 2.0026-7.8698-123.95 0.39104-60.969 0.846-110.85 1.011-110.85s2.3044 2.1375 4.7542 4.75c14.109 15.046 47.56 25.238 93.192 28.395l17.434 1.2062v114.72l5.25-0.65423c12.796-1.5945 23.379-6.9463 31.664-16.011 2.7162-2.972 5.1551-5.4036 5.4197-5.4036 0.26458 0 3.4015 2.9204 6.9708 6.4898 11.546 11.546 27.342 17.018 42.095 14.581 8.3214-1.3743 17.101-5.1012 22.924-9.731 2.297-1.8264 4.5139-3.3251 4.9264-3.3304 0.4125-5e-3 0.75 19.805 0.75 44.022 0 49.28 0.19123 47.809-7.1388 54.897-11.631 11.246-36.145 20.244-68.361 25.091-18.511 2.7853-57.32 3.5433-75.5 1.4748zm-2.7475-247.07c-20.834-2.5239-40.017-7.9932-49.038-13.981-20.779-13.794-4.6159-28.534 40.285-36.739 10.76-1.9663 15.357-2.1926 44.5-2.1907 29.552 0.0019 33.679 0.21195 45.5 2.3161 14.38 2.5597 31.242 7.7642 38.016 11.734 25.496 14.942 2.8399 32.853-49.266 38.948-15.892 1.859-54.327 1.8112-69.997-0.08703z" fill="#58b2d6"/>
  <path d="m162.21 314.19c-32.762-3.9477-60.227-13.007-72.814-24.018-8.7817-7.682-8.017 2.9716-8.8076-122.7-0.38645-61.426-0.42267-111.68-0.08048-111.68 0.34219 0 2.6265 2.1375 5.0763 4.75 14.109 15.046 47.56 25.238 93.192 28.395l17.434 1.2062v225.65l-11.25-0.10724c-6.1875-0.059-16.425-0.73083-22.75-1.493zm0.25253-244.98c-20.834-2.5239-40.017-7.9932-49.038-13.981-20.779-13.794-4.6159-28.534 40.285-36.739 10.76-1.9663 15.357-2.1926 44.5-2.1907 29.552 0.0019 33.679 0.21195 45.5 2.3161 14.38 2.5597 31.242 7.7642 38.016 11.734 25.496 14.942 2.8399 32.853-49.266 38.948-15.892 1.859-54.327 1.8112-69.997-0.08703z" fill="#b3d131"/>
  <path d="m162.21 314.19c-32.762-3.9477-60.227-13.007-72.814-24.018-8.7817-7.682-8.017 2.9716-8.8076-122.7-0.38645-61.426-0.42267-111.68-0.08048-111.68 0.34219 0 2.6265 2.1375 5.0763 4.75 14.109 15.046 47.56 25.238 93.192 28.395l17.434 1.2062v225.65l-11.25-0.10724c-6.1875-0.059-16.425-0.73083-22.75-1.493zm9.5-245.08c-8.1827-0.71057-25.256-3.5353-33.064-5.4703-8.31-2.0594-11.303-3.3121-10.303-4.3123 1.1732-1.1732 20.211-5.5161 31.599-7.2082 14.805-2.1999 58.989-2.5134 72.768-0.51629 17.359 2.516 35.5 6.7278 35.5 8.2421 0 2.1393-22.907 7.1726-40.424 8.8824-9.961 0.97226-46.422 1.2211-56.076 0.38267z" fill="#3897c4"/>
  <path d="m106.71 203.77c-7.3123-1.1008-15.31-4.4372-21-8.7601l-5-3.799-0.25699-67.708c-0.14134-37.239-0.04688-67.708 0.20993-67.708 0.2568 0 2.4713 2.1375 4.9211 4.75 14.109 15.046 47.56 25.238 93.192 28.395l17.434 1.2062v113.92l-6.5892-0.52892c-9.4738-0.76047-20.039-6.1668-28.152-14.406-3.4329-3.4862-6.5142-6.3385-6.8472-6.3385s-2.6993 2.3311-5.2583 5.1801c-11.035 12.286-26.911 18.165-42.653 15.795zm65-134.66c-8.1827-0.71057-25.256-3.5353-33.064-5.4703-8.31-2.0594-11.303-3.3121-10.303-4.3123 1.1732-1.1732 20.211-5.5161 31.599-7.2082 14.805-2.1999 58.989-2.5134 72.768-0.51629 17.359 2.516 35.5 6.7278 35.5 8.2421 0 2.1393-22.907 7.1726-40.424 8.8824-9.961 0.97226-46.422 1.2211-56.076 0.38267z" fill="#7eb900"/>
  <path d="m106.71 203.77c-7.3123-1.1008-15.31-4.4372-21-8.7601l-5-3.799-0.25699-67.708c-0.14134-37.239-0.04688-67.708 0.20993-67.708 0.2568 0 2.4713 2.1375 4.9211 4.75 14.109 15.046 47.56 25.238 93.192 28.395l17.434 1.2062v113.92l-6.5892-0.52892c-9.4738-0.76047-20.039-6.1668-28.152-14.406-3.4329-3.4862-6.5142-6.3385-6.8472-6.3385s-2.6993 2.3311-5.2583 5.1801c-11.035 12.286-26.911 18.165-42.653 15.795z" fill="#3e3e3f"/>
 </g>
</svg>
